<svg xmlns="http://www.w3.org/2000/svg" viewBox="0 0 50.63 61.88"><title>Asset 1</title><g id="Layer_2" data-name="Layer 2"><g id="Layer_1-2" data-name="Layer 1"><path d="M32.81,43.13h-15a.94.94,0,0,0,0,1.88h8.44v2.81a3.75,3.75,0,0,0,7.5,0V44.06A.94.94,0,0,0,32.81,43.13Zm-.94,4.69a1.88,1.88,0,0,1-3.75,0V45h3.75Z"/><path d="M17.81,39.38a.94.94,0,0,0,.66-1.6l-1.21-1.21,1.21-1.21A.94.94,0,0,0,17.15,34l-1.21,1.21L14.73,34a.94.94,0,0,0-1.33,1.33l1.21,1.21L13.4,37.78a.94.94,0,0,0,1.33,1.33l1.21-1.21,1.21,1.21A.94.94,0,0,0,17.81,39.38Z"/><path d="M37.23,34a.94.94,0,0,0-1.33,0l-1.21,1.21L33.48,34a.94.94,0,1,0-1.33,1.33l1.21,1.21-1.21,1.21a.94.94,0,0,0,1.33,1.33l1.21-1.21L35.9,39.1a.94.94,0,1,0,1.33-1.33L36,36.56l1.21-1.21A.94.94,0,0,0,37.23,34Z"/><path d="M50.35,13.4,37.23.27a1,1,0,0,0-.31-.2A.93.93,0,0,0,36.56,0H4.69A4.69,4.69,0,0,0,0,4.69v52.5a4.69,4.69,0,0,0,4.69,4.69H45.94a4.69,4.69,0,0,0,4.69-4.69V14.06a1,1,0,0,0-.07-.36A1,1,0,0,0,50.35,13.4Zm-10-.27a2.82,2.82,0,0,1-2.81-2.81V3.2l9.92,9.92ZM45.94,60H4.69a2.82,2.82,0,0,1-2.81-2.81V4.69A2.82,2.82,0,0,1,4.69,1.88H35.63v8.44A4.69,4.69,0,0,0,40.31,15h8.44V57.19A2.82,2.82,0,0,1,45.94,60Z"/></g></g></svg>